<?xml version="1.0" encoding="utf-8"?>
<!-- Generator: Adobe Illustrator 23.0.2, SVG Export Plug-In . SVG Version: 6.00 Build 0)  -->
<svg version="1.1" id="Px_x5F_16" xmlns="http://www.w3.org/2000/svg" xmlns:xlink="http://www.w3.org/1999/xlink" x="0px" y="0px"
	 viewBox="0 0 1200 1200" enable-background="new 0 0 1200 1200" xml:space="preserve">
<g>
	<polygon fill="#DCEBF1" points="696.9,376.2 680.3,393.4 680.3,422.3 666,422.3 666,453.9 642.9,453.9 642.9,476.9 619.9,476.9 
		619.9,500 587.5,500 587.5,544.6 685.2,620.5 589.5,561.2 597,824.1 679.9,890.6 597.2,840.7 600.5,919.5 696.5,989.5 	"/>
	<polygon fill="#C9E6EE" points="593.2,684.8 589.5,561 685.2,620.3 680.7,751.5 	"/>
	<polygon fill="#7EC9DC" points="696.9,376.2 805.9,490.9 802.5,629.6 699.1,713.3 799.8,657.9 796.2,772.5 699.7,841.7 
		796.6,791.5 792.7,917.9 696.5,989.5 	"/>
	<path fill="#B6E2ED" d="M796.6,791.5l-47.1,24.3c12.1,44.7,26.5,75.8,43.9,81.7L796.6,791.5z"/>
	<path fill="#9CD5E9" d="M747.3,807.5l48.7-35l3.6-114.6l-73.2,40.4C732.3,738,739.4,775.8,747.3,807.5z"/>
	<path fill="#95D1E1" d="M802.5,629.6l3.4-138.7l-109-114.6c0,0,7.5,169.6,28.7,315.6L802.5,629.6z"/>
	<g>
		<path fill="#76BCE4" d="M819.3,771.2h5.2c0.4,6.4,3.3,11.6,8.7,15.7c5.4,4,12.2,6.1,20.4,6.1c8,0,14.5-2,19.5-6
			c5.1-4,7.6-9.1,7.6-15.3c0-4.9-1.8-8.9-5.3-11.9c-3.5-3-9.2-5.6-17.2-7.6l-11.2-2.7c-8.7-2.2-15.1-5.2-19.2-8.9
			c-4.1-3.7-6.1-8.5-6.1-14.4c0-7.3,3-13.3,8.9-18.1c6-4.8,13.3-7.2,21.9-7.2c8.8,0,16.2,2.3,22.2,6.9c6,4.6,9.1,10.4,9.4,17.4h-5.2
			c-0.3-5.7-3-10.3-8-14c-5-3.7-11.2-5.5-18.6-5.5c-7.2,0-13.2,1.9-18.1,5.8c-4.9,3.8-7.3,8.7-7.3,14.6c0,4.7,1.8,8.4,5.3,11.4
			c3.5,2.9,9.1,5.3,16.8,7.2l10.5,2.7c9.2,2.3,15.9,5.3,20.1,9c4.2,3.8,6.3,8.8,6.3,15c0,7.8-3,14.2-9.1,19.1
			c-6,4.9-14,7.4-23.7,7.4c-9.7,0-17.6-2.5-23.9-7.4C823.1,785.4,819.7,779,819.3,771.2z"/>
		<path fill="#76BCE4" d="M945,779.9h4.8c-1.1,5.5-4,10-8.6,13.5c-4.6,3.5-10.4,5.2-17.3,5.2c-8.7,0-15.6-2.9-20.7-8.7
			c-5.1-5.8-7.6-13.8-7.6-23.9c0-9.8,2.5-17.7,7.6-23.7c5.1-6,11.8-9,20.2-9c8.2,0,14.7,2.8,19.7,8.5c5,5.6,7.5,13.1,7.5,22.3v2.7
			h-50.2v0.2c0,8.5,2.1,15.2,6.4,20.1c4.2,4.9,10,7.3,17.2,7.3c5.6,0,10.3-1.3,14-4C941.7,787.7,944,784.2,945,779.9z M923.3,737.5
			c-6.5,0-11.9,2.3-16.1,6.9c-4.2,4.6-6.4,10.7-6.8,18.3h45.2c0-7.5-2.1-13.6-6.2-18.3C935.3,739.8,930,737.5,923.3,737.5z"/>
		<path fill="#76BCE4" d="M963.8,797.6v-63.4h4.4V748h0.1c1.5-4.4,4.2-8,8.1-10.7c3.9-2.7,8.5-4.1,13.9-4.1c7,0,12.6,2.1,16.8,6.3
			c4.2,4.2,6.3,9.9,6.3,17v41.1h-4.8v-40.5c0-6.1-1.8-10.9-5.3-14.4c-3.5-3.5-8.3-5.2-14.2-5.2c-6.1,0-11.1,2.1-14.9,6.2
			c-3.8,4.1-5.7,9.5-5.7,16.1v37.8H963.8z"/>
		<path fill="#76BCE4" d="M1033.2,717.6h4.7v16.6h12.7v4.1h-12.7v44.7c0,3.7,0.7,6.4,2.2,8c1.5,1.6,3.8,2.4,7,2.4c0.1,0,0.9,0,2.2,0
			c1.4,0,2.1,0,2.2,0v4.1c-0.6,0.1-2.3,0.1-5.1,0.1c-4.7,0-8-1.1-10.1-3.4s-3.1-6-3.1-11.2v-44.9h-9.4v-4.1h9.4V717.6z"/>
	</g>
	<g>
		<path fill="#A7E3FC" d="M205.5,797.2h-18.5V760h-39.8v37.2h-18.5v-88.3h18.5v35.8h39.8v-35.8h18.5V797.2z"/>
		<path fill="#A7E3FC" d="M263.2,777.2h16.3c-1,6.4-4.2,11.6-9.6,15.5c-5.4,3.9-12.2,5.9-20.2,5.9c-10,0-17.9-3-23.6-9
			c-5.7-6-8.6-14.3-8.6-24.7c0-10.4,2.8-18.8,8.5-25c5.7-6.2,13.3-9.4,23-9.4c9.5,0,17,3,22.6,8.9c5.6,5.9,8.4,13.9,8.4,23.8v5.4
			h-45v1.1c0,4.7,1.4,8.5,4.1,11.4c2.7,2.9,6.4,4.4,10.9,4.4c3.2,0,6.1-0.7,8.4-2.2C260.8,781.7,262.3,779.7,263.2,777.2z
			 M249.2,743.6c-3.9,0-7.1,1.3-9.7,4c-2.6,2.6-4,6-4.4,10.1h27.7c-0.2-4.2-1.6-7.6-4.1-10.2C256.4,744.9,253.1,743.6,249.2,743.6z"
			/>
		<path fill="#A7E3FC" d="M310.1,798.3c-6.3,0-11.5-1.8-15.7-5.5c-4.1-3.7-6.2-8.4-6.2-14.3c0-5.9,2.2-10.6,6.6-14
			c4.4-3.4,10.7-5.3,18.8-5.8l16.5-1v-4.3c0-3-1-5.4-3-7.1c-2-1.7-4.6-2.6-8-2.6c-3.3,0-5.9,0.7-8,2.2c-2.1,1.5-3.3,3.4-3.7,5.9
			h-16.3c0.3-6.4,3.1-11.6,8.2-15.5c5.2-3.9,12-5.9,20.5-5.9c8.4,0,15.1,2,20.1,6c5,4,7.6,9.3,7.6,15.8v44.9h-17.2v-10H330
			c-1.8,3.4-4.5,6.1-8.2,8.1C318.2,797.3,314.2,798.3,310.1,798.3z M315.9,785.4c3.9,0,7.3-1.1,10-3.4c2.7-2.3,4.1-5.2,4.1-8.7v-4.8
			l-13.8,0.9c-3.3,0.2-5.9,1.1-7.7,2.5c-1.8,1.4-2.7,3.3-2.7,5.6c0,2.4,0.9,4.4,2.7,5.8C310.4,784.7,312.9,785.4,315.9,785.4z"/>
		<path fill="#A7E3FC" d="M419.9,731.9l-22.4,65.3h-20.1l-22.6-65.3h19.1l13.6,49.6h0.4l13.5-49.6H419.9z"/>
		<path fill="#A7E3FC" d="M469,777.2h16.3c-1,6.4-4.2,11.6-9.6,15.5c-5.4,3.9-12.2,5.9-20.2,5.9c-10,0-17.9-3-23.6-9
			c-5.7-6-8.6-14.3-8.6-24.7c0-10.4,2.8-18.8,8.5-25c5.7-6.2,13.3-9.4,23-9.4c9.5,0,17,3,22.6,8.9c5.6,5.9,8.4,13.9,8.4,23.8v5.4
			h-45v1.1c0,4.7,1.4,8.5,4.1,11.4c2.7,2.9,6.4,4.4,10.9,4.4c3.2,0,6.1-0.7,8.4-2.2C466.6,781.7,468.2,779.7,469,777.2z M455,743.6
			c-3.9,0-7.1,1.3-9.7,4c-2.6,2.6-4,6-4.4,10.1h27.7c-0.2-4.2-1.6-7.6-4.1-10.2C462.2,744.9,459,743.6,455,743.6z"/>
		<path fill="#A7E3FC" d="M496.5,797.2v-65.3h17.2v11.6h0.4c1.8-4.1,4.4-7.3,7.8-9.5c3.4-2.2,7.6-3.3,12.6-3.3
			c7.2,0,12.8,2.2,16.8,6.5c3.9,4.3,5.9,10.3,5.9,18v42.1h-17.8v-38.4c0-4.3-1-7.6-3-9.9c-2-2.3-5-3.5-9-3.5c-3.9,0-7.1,1.3-9.5,4
			c-2.4,2.6-3.6,6.1-3.6,10.4v37.5H496.5z"/>
	</g>
	<path fill="#DFDFDF" d="M696.3,1109.2l0.6-733C696.9,376.2,730.3,880.7,696.3,1109.2z"/>
	<path fill="#F3F3F3" d="M696.3,1109.2l0.6-733C696.9,376.2,662.8,880.7,696.3,1109.2z"/>
	<path fill="#FFFFFF" d="M614.8,464.6L614.8,464.6L614.8,464.6z"/>
	<rect x="570.1" y="399" fill="#B6E2ED" width="28.7" height="28.7"/>
	<rect x="556" y="373.8" fill="#9CD5E9" width="14.4" height="14.4"/>
	<rect x="522.6" y="214.9" fill="#7EC9DC" width="35" height="35"/>
	<rect x="627.7" y="320" fill="#A7E3FC" width="35" height="35"/>
	<rect x="522.6" y="284.9" fill="#76BCE4" width="35" height="35"/>
	<rect x="491.5" y="253.8" fill="#A7E3FC" width="26.9" height="26.9"/>
	<rect x="601.1" y="293.6" fill="#7EC9DC" width="17.8" height="17.8"/>
	<rect x="496" y="328.6" fill="#76BCE4" width="17.8" height="17.8"/>
	<rect x="543.3" y="307.5" fill="#A7E3FC" width="35" height="35"/>
	<rect x="611.9" y="420.5" fill="#A7E3FC" width="25.5" height="25.5"/>
	<rect x="652.8" y="393.8" fill="#7EC9DC" width="15" height="15"/>
	<rect x="570.1" y="334.2" fill="#7EC9DC" width="15.6" height="15.6"/>
	<rect x="605.2" y="439.2" fill="#9CD5E9" width="15.6" height="15.6"/>
	<rect x="599.8" y="347.7" fill="#7EC9DC" width="35" height="35"/>
	<rect x="496.1" y="182" fill="#B6E2ED" width="17.8" height="17.8"/>
</g>
<g>
</g>
<g>
</g>
<g>
</g>
<g>
</g>
<g>
</g>
<g>
</g>
<g>
</g>
<g>
</g>
<g>
</g>
<g>
</g>
<g>
</g>
<g>
</g>
<g>
</g>
<g>
</g>
<g>
</g>
</svg>
