<svg width="263" height="78" viewBox="0 0 263 78" fill="none" xmlns="http://www.w3.org/2000/svg">
<g filter="url(#filter0_d)">
<g clip-path="url(#clip0)">
<path d="M177.396 47.3313H177.133L177.147 47.5941C177.257 49.7508 178.2 51.5765 179.851 53.0074L179.851 53.0077L179.861 53.0155C181.623 54.3918 183.871 55.0993 186.535 55.0993C189.197 55.0993 191.395 54.3925 193.053 53.0119C194.768 51.6283 195.603 49.8468 195.603 47.6882C195.603 45.9651 194.988 44.5603 193.81 43.4947C192.643 42.4384 190.778 41.6243 188.308 40.9799L188.307 40.9795L185.367 40.2313L185.367 40.2313L185.365 40.2307C183.189 39.6999 181.629 39.0168 180.657 38.1982C179.703 37.3944 179.25 36.3444 179.25 35.076C179.25 33.4449 179.907 32.0741 181.291 30.9981C182.686 29.9128 184.395 29.3406 186.375 29.3406C188.47 29.3406 190.232 29.864 191.623 30.8948C193.013 31.924 193.719 33.1951 193.821 34.7186L193.836 34.952H194.07H194.979H195.244L195.228 34.6873C195.117 32.7906 194.22 31.1764 192.566 29.9076L192.566 29.9076L192.562 29.9052C190.858 28.641 188.828 27.9856 186.375 27.9856C184.076 27.9856 182.043 28.698 180.393 30.0177C178.733 31.3456 177.895 33.0729 177.895 35.076C177.895 36.6913 178.455 38.043 179.634 39.1092C180.8 40.1647 182.61 40.9792 185.032 41.5713C185.032 41.5714 185.032 41.5715 185.033 41.5715L188.023 42.319C188.023 42.3191 188.023 42.3191 188.023 42.3192C190.304 42.9026 191.917 43.6381 192.891 44.4567C193.848 45.314 194.301 46.3659 194.301 47.7416C194.301 49.478 193.591 50.9044 192.204 52.0355C190.76 53.1693 188.948 53.7442 186.695 53.7442C184.391 53.7442 182.469 53.1166 180.968 51.9785C179.42 50.7912 178.657 49.3606 178.555 47.567L178.541 47.3313H178.305H177.396Z" fill="white" stroke="white" stroke-width="0.5"/>
<path d="M213.719 53.5667V53.3167H213.469H199.825V41.7924H212.828H213.078V41.5424V40.7408V40.4908H212.828H199.825V29.6613H213.469H213.719V29.4113V28.5562V28.3062H213.469H198.666H198.416V28.5562V54.4218V54.6718H198.666H213.469H213.719V54.4218V53.5667Z" fill="white" stroke="white" stroke-width="0.5"/>
<path d="M217.174 54.4218V54.6718H217.424H218.332H218.386H218.636V54.4218V30.8148L235.497 54.5665L235.572 54.6718H235.701H236.502H236.752V54.4218V28.5562V28.3062H236.502H235.594H235.344V28.5562V52.0031L218.59 28.4115L218.515 28.3062H218.386H217.424H217.174V28.5562V54.4218Z" fill="white" stroke="white" stroke-width="0.5"/>
<path d="M249.222 54.6718H249.472V54.4218V29.6613H258.521H258.771V29.4113V28.5562V28.3062H258.521H239.015H238.765V28.5562V29.4113V29.6613H239.015H248.063V54.4218V54.6718H248.313H249.222Z" fill="white" stroke="white" stroke-width="0.5"/>
<path d="M63.8389 54.6718H64.0889V54.4218V28.5562V28.3062H63.8389H62.9839H62.7339V28.5562V40.4374H46.2396V28.5562V28.3062H45.9896H45.0811H44.8311V28.5562V54.4218V54.6718H45.0811H45.9896H46.2396V54.4218V41.7924H62.6804V54.4218V54.6718H62.9304H63.8389Z" fill="white" stroke="white" stroke-width="0.5"/>
<path d="M83.3279 53.5667V53.3167H83.0779H69.4332V41.7924H82.4366H82.6866V41.5424V40.7408V40.4908H82.4366H69.4332V29.6613H83.0779H83.3279V29.4113V28.5562V28.3062H83.0779H68.3281H68.0781V28.5562V54.4218V54.6718H68.3281H83.0779H83.3279V54.4218V53.5667Z" fill="white" stroke="white" stroke-width="0.5"/>
<path d="M104.809 54.5095L104.87 54.6718H105.043H106.058H106.422L106.292 54.3321L96.3515 28.4665L96.2898 28.3062H96.1181H95.2096H95.0378L94.9762 28.4665L85.0362 54.3321L84.9056 54.6718H85.2695H86.2315H86.4038L86.4651 54.5108L89.824 45.6936H101.503L104.809 54.5095ZM100.939 44.392H90.2823L95.6104 30.4685L100.939 44.392Z" fill="white" stroke="white" stroke-width="0.5"/>
<path d="M114.127 54.6718H114.299L114.36 54.5114L124.3 28.6459L124.431 28.3062H124.067H123.105H122.933L122.872 28.4669L113.673 52.5094L104.474 28.4669L104.412 28.3062H104.24H103.278H102.914L103.045 28.6459L112.985 54.5114L113.047 54.6718H113.218H114.127Z" fill="white" stroke="white" stroke-width="0.5"/>
<path d="M141.685 53.5667V53.3167H141.435H127.79V41.7924H140.794H141.044V41.5424V40.7408V40.4908H140.794H127.79V29.6613H141.435H141.685V29.4113V28.5562V28.3062H141.435H126.632H126.382V28.5562V54.4218V54.6718H126.632H141.435H141.685V54.4218V53.5667Z" fill="white" stroke="white" stroke-width="0.5"/>
<path d="M145.193 54.4218V54.6718H145.443H146.352H146.405H146.655V54.4218V30.813L163.57 54.5668L163.645 54.6718H163.774H164.522H164.772V54.4218V28.5562V28.3062H164.522H163.613H163.363V28.5562V52.0031L146.609 28.4115L146.534 28.3062H146.405H145.443H145.193V28.5562V54.4218Z" fill="white" stroke="white" stroke-width="0.5"/>
<path d="M17.1743 23.5287V21.1468H18.2584V18.9633L19.5105 17.6655L27.7404 26.3229L27.4809 36.7974L19.6784 43.1187L27.2824 38.9351L27.0075 47.5925L19.7242 52.8145L27.0381 49.0278L26.7479 58.5709L19.4799 63.9761L12.2272 58.693L11.9829 52.7382L18.2279 56.5096L11.9676 51.4861L11.4027 31.6365L18.6249 36.1103L11.25 30.3845V27.01H13.693V25.2694H15.4337V23.5287H17.1743Z" fill="white"/>
<path d="M27.008 47.5925L19.7248 52.8145L27.0386 49.0278L26.7485 58.5709L19.4805 63.9761L19.511 17.6655L27.741 26.3229L27.4814 36.7974L19.679 43.1187L27.2829 38.9351L27.008 47.5925Z" fill="white"/>
<path d="M27.0381 49.0278L23.4805 50.8601C24.3966 54.2345 25.4807 56.5859 26.7938 57.0287L27.0381 49.0278Z" fill="white"/>
<path d="M27.4811 36.7974L27.7407 26.3229L19.5107 17.6502C19.5107 17.6502 20.0757 30.4761 21.6789 41.5002L27.4811 36.7974Z" fill="white"/>
<path d="M23.3129 50.234L26.9927 47.5925L27.2676 38.9351L21.7402 41.9888C22.183 44.9815 22.7174 47.8368 23.3129 50.234Z" fill="white"/>
<path d="M19.4951 29.8043L26.2898 24.796L19.5104 17.6655L19.4951 29.8043Z" fill="white"/>
<path d="M11.4033 31.6213L18.6255 36.095L18.2896 46.0046L11.6782 40.9658L11.4033 31.6213Z" fill="white"/>
<path d="M19.373 73L19.4189 17.6502C19.4189 17.6502 21.9382 55.7461 19.373 73Z" fill="white"/>
<path d="M19.3735 73L19.4193 17.6502C19.4193 17.6502 16.8389 55.7461 19.3735 73Z" fill="white"/>
<path d="M9.93826 21.5551H12.1064V19.3869H9.93826V21.5551Z" fill="white"/>
<path d="M8.87197 18.5654H9.95605V17.4813H8.87197V18.5654Z" fill="white"/>
<path d="M6.34481 8.12487H8.98633V5.48335H6.34481V8.12487Z" fill="white"/>
<path d="M14.2813 16.0611H16.9229V13.4196H14.2813V16.0611Z" fill="white"/>
<path d="M6.34481 13.4106H8.98633V10.7691H6.34481V13.4106Z" fill="white"/>
<path d="M4.00049 10.4547H6.03125V8.42398H4.00049V10.4547Z" fill="white"/>
<path d="M13.6191 12.7673V11.4236H12.2755V12.7673H13.6191Z" fill="white"/>
<path d="M5.68555 15.4115V14.0679H4.34188V15.4115H5.68555Z" fill="white"/>
<path d="M10.5508 15.1147V12.4732H7.90926V15.1147H10.5508Z" fill="white"/>
<path d="M15.0146 22.937V21.0131H13.0908V22.937H15.0146Z" fill="white"/>
<path d="M17.3105 20.1255V18.9956H16.1806V20.1255H17.3105Z" fill="white"/>
<path d="M11.1143 15.6688V14.4931H9.93855V15.6688H11.1143Z" fill="white"/>
<path d="M13.7637 23.5971V22.4214H12.588V23.5971H13.7637Z" fill="white"/>
<path d="M14.8193 18.1505V15.5089H12.1778V18.1505H14.8193Z" fill="white"/>
<path d="M5.6875 4.34366V3H4.34384V4.34366H5.6875Z" fill="white"/>
</g>
</g>
<defs>
<filter id="filter0_d" x="0" y="0" width="262.52" height="78" filterUnits="userSpaceOnUse" color-interpolation-filters="sRGB">
<feFlood flood-opacity="0" result="BackgroundImageFix"/>
<feColorMatrix in="SourceAlpha" type="matrix" values="0 0 0 0 0 0 0 0 0 0 0 0 0 0 0 0 0 0 127 0"/>
<feOffset dy="1"/>
<feGaussianBlur stdDeviation="2"/>
<feColorMatrix type="matrix" values="0 0 0 0 0 0 0 0 0 0 0 0 0 0 0 0 0 0 0.25 0"/>
<feBlend mode="normal" in2="BackgroundImageFix" result="effect1_dropShadow"/>
<feBlend mode="normal" in="SourceGraphic" in2="effect1_dropShadow" result="shape"/>
</filter>
<clipPath id="clip0">
<rect x="4" y="3" width="254.52" height="70" fill="white"/>
</clipPath>
</defs>
</svg>
